# xmcd
#
# Track frame offsets:
#	150
#	10712
#	22972
#	36710
#	49869
#	67220
#	78160
#	90340
#	104337
#	116852
#	136164
#	145977
#
# Disc length: 2117 seconds
# Revision: 0
# Processed by: cddbd v1.5.2PL0 Copyright (c) Steve Scherf et al.
# Submitted via: dBpowerAMP V12.0
#
DISCID=a008430c
DTITLE=Dave Adkins - Dave Adkins
DYEAR=2016
DGENRE=Country
TTITLE0=Change Her Mind
TTITLE1=Emmaline
TTITLE2=Fool-o-sophy
TTITLE3=A Whole Lot More to Tell 
TTITLE4=Russel Fork River
TTITLE5=Sold 
TTITLE6=You Don't Have to Go to Be Gone
TTITLE7=It's Not Over (Till I Get Over You)
TTITLE8=Turn and Burn  
TTITLE9=Angel Song  
TTITLE10=Wasting Time  
TTITLE11=One and Only 
EXTD=
EXTT0=
EXTT1=
EXTT2=
EXTT3=
EXTT4=
EXTT5=
EXTT6=
EXTT7=
EXTT8=
EXTT9=
EXTT10=
EXTT11=
PLAYORDER=
